<?xml version="1.0" encoding="iso-8859-1"?>
<!-- Generator: Adobe Illustrator 19.0.0, SVG Export Plug-In . SVG Version: 6.00 Build 0)  -->
<svg version="1.1" id="Capa_1" xmlns="http://www.w3.org/2000/svg"
	 viewBox="0 0 512 512" style="enable-background:new 0 0 512 512;" xml:space="preserve">
<g>
	<g>
		<path d="M476.5,27H318.955c-5.523,0-10,4.478-10,10s4.477,10,10,10H476.5c8.547,0,15.5,6.953,15.5,15.5V187v30v104.337H60v-61.163
			c0-5.522-4.477-10-10-10s-10,4.478-10,10v61.163H20V185v-9.013V62.5C20,53.953,26.953,47,35.5,47h201.455c5.523,0,10-4.478,10-10
			s-4.477-10-10-10H35.5C15.925,27,0,42.925,0,62.5v113.487V185v186.5C0,391.075,15.925,407,35.5,407H208v58h-33.902
			c-5.523,0-10,4.478-10,10c0,5.522,4.477,10,10,10H218h76h43.902c5.523,0,10-4.478,10-10c0-5.522-4.477-10-10-10H304v-58h172.5
			c19.575,0,35.5-15.925,35.5-35.5V217v-30V62.5C512,42.925,496.075,27,476.5,27z M284,465h-56v-58h56V465z M492,371.5
			c0,8.547-6.953,15.5-15.5,15.5h-441c-8.547,0-15.5-6.953-15.5-15.5v-30.163h472V371.5z"/>
	</g>
</g>
<g>
	<g>
		<path d="M285.04,29.93c-1.86-1.86-4.44-2.93-7.07-2.93s-5.21,1.069-7.07,2.93c-1.86,1.861-2.93,4.44-2.93,7.07
			s1.06,5.21,2.93,7.069c1.86,1.861,4.44,2.931,7.07,2.931s5.21-1.07,7.07-2.931c1.86-1.859,2.93-4.439,2.93-7.069
			S286.9,31.79,285.04,29.93z"/>
	</g>
</g>
<g>
	<g>
		<path d="M255.958,352.793c-5.523,0-10,4.478-10,10c0,5.522,4.477,10,10,10h0.085c5.523,0,9.958-4.478,9.958-10
			C266.001,357.271,261.48,352.793,255.958,352.793z"/>
	</g>
</g>
<g>
	<g>
		<path d="M147.979,75c-5.523,0-10,4.478-10,10v72c0,5.522,4.477,10,10,10s10-4.478,10-10V85C157.979,79.478,153.502,75,147.979,75z
			"/>
	</g>
</g>
<g>
	<g>
		<path d="M271.979,75c-5.523,0-10,4.478-10,10v72c0,5.522,4.477,10,10,10s10-4.478,10-10V85C281.979,79.478,277.502,75,271.979,75z
			"/>
	</g>
</g>
<g>
	<g>
		<path d="M83.979,75c-16.542,0-30,13.458-30,30v32c0,16.542,13.458,30,30,30s30-13.458,30-30v-32
			C113.979,88.458,100.521,75,83.979,75z M93.979,137c0,5.514-4.486,10-10,10s-10-4.486-10-10v-32c0-5.514,4.486-10,10-10
			s10,4.486,10,10V137z"/>
	</g>
</g>
<g>
	<g>
		<path d="M211.979,75c-16.542,0-30,13.458-30,30v32c0,16.542,13.458,30,30,30s30-13.458,30-30v-32
			C241.979,88.458,228.521,75,211.979,75z M221.979,137c0,5.514-4.486,10-10,10c-5.514,0-10-4.486-10-10v-32c0-5.514,4.486-10,10-10
			c5.514,0,10,4.486,10,10V137z"/>
	</g>
</g>
<g>
	<g>
		<path d="M391.979,75c-5.523,0-10,4.478-10,10v72c0,5.522,4.477,10,10,10s10-4.478,10-10V85C401.979,79.478,397.502,75,391.979,75z
			"/>
	</g>
</g>
<g>
	<g>
		<path d="M331.979,75c-16.542,0-30,13.458-30,30v32c0,16.542,13.458,30,30,30s30-13.458,30-30v-32
			C361.979,88.458,348.521,75,331.979,75z M341.979,137c0,5.514-4.486,10-10,10c-5.514,0-10-4.486-10-10v-32c0-5.514,4.486-10,10-10
			c5.514,0,10,4.486,10,10V137z"/>
	</g>
</g>
<g>
	<g>
		<path d="M204,195c-5.523,0-10,4.478-10,10v72c0,5.522,4.477,10,10,10s10-4.478,10-10v-72C214,199.478,209.523,195,204,195z"/>
	</g>
</g>
<g>
	<g>
		<path d="M328,195c-5.523,0-10,4.478-10,10v72c0,5.522,4.477,10,10,10s10-4.478,10-10v-72C338,199.478,333.523,195,328,195z"/>
	</g>
</g>
<g>
	<g>
		<path d="M140,195c-16.542,0-30,13.458-30,30v32c0,16.542,13.458,30,30,30s30-13.458,30-30v-32C170,208.458,156.542,195,140,195z
			 M150,257c0,5.514-4.486,10-10,10c-5.514,0-10-4.486-10-10v-32c0-5.514,4.486-10,10-10c5.514,0,10,4.486,10,10V257z"/>
	</g>
</g>
<g>
	<g>
		<path d="M268,195c-16.542,0-30,13.458-30,30v32c0,16.542,13.458,30,30,30s30-13.458,30-30v-32C298,208.458,284.542,195,268,195z
			 M278,257c0,5.514-4.486,10-10,10c-5.514,0-10-4.486-10-10v-32c0-5.514,4.486-10,10-10c5.514,0,10,4.486,10,10V257z"/>
	</g>
</g>
<g>
	<g>
		<path d="M448,195c-5.523,0-10,4.478-10,10v72c0,5.522,4.477,10,10,10s10-4.478,10-10v-72C458,199.478,453.523,195,448,195z"/>
	</g>
</g>
<g>
	<g>
		<path d="M388,195c-16.542,0-30,13.458-30,30v32c0,16.542,13.458,30,30,30s30-13.458,30-30v-32C418,208.458,404.542,195,388,195z
			 M398,257c0,5.514-4.486,10-10,10c-5.514,0-10-4.486-10-10v-32c0-5.514,4.486-10,10-10c5.514,0,10,4.486,10,10V257z"/>
	</g>
</g>
<g>
	<g>
		<path d="M57.07,213.439c-1.86-1.87-4.44-2.93-7.07-2.93c-2.63,0.001-5.21,1.06-7.07,2.93c-1.86,1.86-2.93,4.44-2.93,7.07
			s1.07,5.2,2.93,7.07c1.86,1.859,4.44,2.93,7.07,2.93s5.21-1.07,7.07-2.93c1.86-1.87,2.93-4.44,2.93-7.07
			S58.93,215.299,57.07,213.439z"/>
	</g>
</g>
<g>
</g>
<g>
</g>
<g>
</g>
<g>
</g>
<g>
</g>
<g>
</g>
<g>
</g>
<g>
</g>
<g>
</g>
<g>
</g>
<g>
</g>
<g>
</g>
<g>
</g>
<g>
</g>
<g>
</g>
</svg>
